<?xml version="1.0" encoding="UTF-8" standalone="no" ?>
<!DOCTYPE svg PUBLIC "-//W3C//DTD SVG 1.1//EN" "http://www.w3.org/Graphics/SVG/1.1/DTD/svg11.dtd">
<svg xmlns="http://www.w3.org/2000/svg" xmlns:xlink="http://www.w3.org/1999/xlink" version="1.1" width="500" height="500" viewBox="0 0 500 500" xml:space="preserve">
<desc>Created with Fabric.js 5.3.0</desc>
<defs>
</defs>
<g transform="matrix(1.0191570733 0 0 1.0769231748 250 242.4505114043)" id="KP8cbGFWage_dNei0uz-W"  >
<path style="stroke: rgb(200,82,153); stroke-width: 0; stroke-dasharray: none; stroke-linecap: butt; stroke-dashoffset: 0; stroke-linejoin: miter; stroke-miterlimit: 4; fill: rgb(0,0,0); fill-rule: nonzero; opacity: 1;" vector-effect="non-scaling-stroke"  transform=" translate(0, 0)" d="M -72.41841 -45.89797 C -72.41841 -50.60692 -68.38467999999999 -54.42428 -63.40881999999999 -54.42428 L 63.411060000000006 -54.42428 L 63.411060000000006 -54.42428 C 68.38692 -54.42428 72.42065000000001 -50.60692 72.42065000000001 -45.89797 L 72.42065000000001 -11.139049999999997 C 72.42065000000001 -11.139049999999997 71.21031 16.548170000000002 53.92219000000001 33.166610000000006 C 39.87774000000001 46.667030000000004 27.97247000000001 48.93619 13.541900000000005 52.67376 L 13.541900000000005 52.67376 C 6.762730000000006 54.429590000000005 -0.3215499999999949 54.87042 -7.285299999999996 53.96976 C -23.674739999999996 51.85002 -38.44181 50.7876 -54.10677 37.02942 C -73.02841 20.410980000000002 -72.41841 -11.13906 -72.41841 -11.13906 z" stroke-linecap="round" />
</g>
<g transform="matrix(0.2442204481 0 0 1 200.1420749974 235.6326539034)" id="NYPO-tvCx5Ms3pwPbernO"  >
<path style="stroke: rgb(125,104,104); stroke-width: 0; stroke-dasharray: none; stroke-linecap: butt; stroke-dashoffset: 0; stroke-linejoin: miter; stroke-miterlimit: 4; fill: rgb(22,18,18); fill-rule: nonzero; opacity: 1;" vector-effect="non-scaling-stroke"  transform=" translate(0, 0)" d="M -56.28923 -39.36508 L 2.7583899999999986 -39.36508 L 2.7583899999999986 5.92324 L 2.7583899999999986 5.92324 C 2.7978199999999984 14.35312 13.698099999999998 22.56623 33.91482 29.39892 C 42.77108 32.39209 61.80655 39.36507 54.75408 39.36507 C 42.437470000000005 39.36507 -9.521770000000004 29.077520000000003 -38.69766 23.21646 L -38.69766 23.21646 C -49.83555 20.979000000000003 -56.28924 17.641710000000003 -56.28924 14.119610000000002 z" stroke-linecap="round" />
</g>
<g transform="matrix(1 0 0 1 322.0375170683 232.4786860045)" id="ADbkgg3HKL9OZRZAvNI-w"  >
<path style="stroke: rgb(0,0,0); stroke-width: 7; stroke-dasharray: none; stroke-linecap: butt; stroke-dashoffset: 0; stroke-linejoin: miter; stroke-miterlimit: 4; fill: rgb(255,255,255); fill-opacity: 0; fill-rule: nonzero; opacity: 1;" vector-effect="non-scaling-stroke"  transform=" translate(0, 0)" d="M -5.8322 -26.28705 L -5.8322 -26.28705 C 0.7884699999999993 -24.19619 6.253399999999999 -19.4668 9.27305 -13.21486 L 9.27305 -13.21486 C 11.34151 -8.932269999999999 12.17841 -4.8497 11.96185 -0.09867999999999988 C 11.74941 4.56199 10.58745 8.47577 8.2223 12.49734 C 8.2223 12.49734 8.201540000000001 12.53265 8.191310000000001 12.55004 L 8.191310000000001 12.55004 C 4.453520000000001 18.90556 -1.6380899999999983 23.532249999999998 -8.76352 25.42752 L -11.99504 26.28706" stroke-linecap="round" />
</g>
<g transform="matrix(1 0 0 1 255.2680774929 136.9697029243)" id="UNdcx7WpZXzmN1DssFrhU"  >
<path style="stroke: rgb(0,0,0); stroke-width: 5; stroke-dasharray: none; stroke-linecap: butt; stroke-dashoffset: 0; stroke-linejoin: miter; stroke-miterlimit: 4; fill: rgb(255,255,255); fill-opacity: 0; fill-rule: nonzero; opacity: 1;" vector-effect="non-scaling-stroke"  transform=" translate(0, 0)" d="M -0.5318 30.26316 L -1.46895 28.512639999999998 L -5.55292 20.884089999999997 L -5.55292 20.884089999999997 C -7.50778 17.232549999999996 -7.25948 12.794969999999998 -4.9094500000000005 9.384309999999997 L 4.06774 -3.644530000000003 L 4.06774 -3.644530000000003 C 7.0053 -7.907890000000003 7.67263 -13.338240000000003 5.8547199999999995 -18.185990000000004 L 1.325779999999999 -30.263150000000003" stroke-linecap="round" />
</g>
<g transform="matrix(1 0 0 1 236.5424296673 110.591993946)" id="gLgBxROsGvmyP3BqaS65G"  >
<path style="stroke: rgb(0,0,0); stroke-width: 5; stroke-dasharray: none; stroke-linecap: butt; stroke-dashoffset: 0; stroke-linejoin: miter; stroke-miterlimit: 4; fill: rgb(255,255,255); fill-opacity: 0; fill-rule: nonzero; opacity: 1;" vector-effect="non-scaling-stroke"  transform=" translate(-4.348e-7, -0.000005)" d="M -0.5318 30.26316 L -1.46895 28.512639999999998 L -5.55292 20.884089999999997 L -5.55292 20.884089999999997 C -7.50778 17.232549999999996 -7.25948 12.794969999999998 -4.9094500000000005 9.384309999999997 L 4.06774 -3.644530000000003 L 4.06774 -3.644530000000003 C 7.0053 -7.907890000000003 7.67263 -13.338240000000003 5.8547199999999995 -18.185990000000004 L 1.325779999999999 -30.263150000000003" stroke-linecap="round" />
</g>
<g transform="matrix(1 0 0 1 185.8950948073 226.4845520004)" id="9todois1eSk2l-eIpQSCv"  >
<path style="stroke: rgb(0,0,0); stroke-width: 1; stroke-dasharray: none; stroke-linecap: butt; stroke-dashoffset: 0; stroke-linejoin: miter; stroke-miterlimit: 4; fill: rgb(255,255,255); fill-opacity: 0; fill-rule: nonzero; opacity: 1;" vector-effect="non-scaling-stroke"  transform=" translate(0, 0)" d="M 0 -23.79292 L 0 23.792910000000003" stroke-linecap="round" />
</g>
<g transform="matrix(1 0 0 1 250 318.3927433564)" id="wWNxqsGXW9UL1dvq-9EWw"  >
<path style="stroke: rgb(125,104,104); stroke-width: 0; stroke-dasharray: none; stroke-linecap: butt; stroke-dashoffset: 0; stroke-linejoin: miter; stroke-miterlimit: 4; fill: rgb(22,18,18); fill-rule: nonzero; opacity: 1;" vector-effect="non-scaling-stroke"  transform=" translate(-66.017957972, -7.3353277046)" d="M 66.01796 0 C 102.45987 0 132.03592 3.28623 132.03592 7.33532 C 132.03592 11.38442 102.45987000000001 14.67064 66.01796 14.67064 C 29.576050000000002 14.67064 0 11.38441 0 7.33532 C 0 3.28622 29.57605 0 66.01796 0 z" stroke-linecap="round" />
</g>
</svg>